<?xml version="1.0" encoding="UTF-8" standalone="no"?>
<!-- Created with Inkscape (http://www.inkscape.org/) -->

<svg
   xmlns:dc="http://purl.org/dc/elements/1.1/"
   xmlns:cc="http://creativecommons.org/ns#"
   xmlns:rdf="http://www.w3.org/1999/02/22-rdf-syntax-ns#"
   xmlns:svg="http://www.w3.org/2000/svg"
   xmlns="http://www.w3.org/2000/svg"
   xmlns:xlink="http://www.w3.org/1999/xlink"
   xmlns:sodipodi="http://sodipodi.sourceforge.net/DTD/sodipodi-0.dtd"
   xmlns:inkscape="http://www.inkscape.org/namespaces/inkscape"
   width="174"
   height="32"
   viewBox="0 0 174 31.999999"
   id="svg4176"
   version="1.1"
   inkscape:version="0.91 r13725"
   sodipodi:docname="fortune_type.svg">
  <defs
     id="defs4178">
    <clipPath
       id="SVGID_10_">
      <use
         xlink:href="#SVGID_9_"
         overflow="visible"
         id="use83"
         style="overflow:visible"
         x="0"
         y="0"
         width="100%"
         height="100%" />
    </clipPath>
    <clipPath
       id="SVGID_12_">
      <use
         xlink:href="#SVGID_11_"
         overflow="visible"
         id="use92"
         style="overflow:visible"
         x="0"
         y="0"
         width="100%"
         height="100%" />
    </clipPath>
    <clipPath
       id="SVGID_10_-6">
      <use
         xlink:href="#SVGID_9_"
         overflow="visible"
         id="use83-8"
         style="overflow:visible"
         x="0"
         y="0"
         width="100%"
         height="100%" />
    </clipPath>
    <clipPath
       id="SVGID_12_-6">
      <use
         xlink:href="#SVGID_11_"
         overflow="visible"
         id="use92-5"
         style="overflow:visible"
         x="0"
         y="0"
         width="100%"
         height="100%" />
    </clipPath>
    <clipPath
       id="SVGID_12_-64">
      <use
         xlink:href="#SVGID_11_"
         overflow="visible"
         id="use92-1"
         style="overflow:visible"
         x="0"
         y="0"
         width="100%"
         height="100%" />
    </clipPath>
    <clipPath
       id="SVGID_10_-2">
      <use
         xlink:href="#SVGID_9_"
         overflow="visible"
         id="use83-2"
         style="overflow:visible"
         x="0"
         y="0"
         width="100%"
         height="100%" />
    </clipPath>
    <clipPath
       id="SVGID_10_-9">
      <use
         xlink:href="#SVGID_9_"
         overflow="visible"
         id="use83-9"
         style="overflow:visible"
         x="0"
         y="0"
         width="100%"
         height="100%" />
    </clipPath>
    <clipPath
       id="SVGID_12_-0">
      <use
         xlink:href="#SVGID_11_"
         overflow="visible"
         id="use92-51"
         style="overflow:visible"
         x="0"
         y="0"
         width="100%"
         height="100%" />
    </clipPath>
    <defs
       id="defs88">
      <path
         inkscape:connector-curvature="0"
         d="m 138.455,147.16 c 19.295,-6.743 57.285,-29.585 42.676,-41.834 -21.907,7.502 -56.522,-55.105 -120.729,-13.757 -36.87,23.745 12.214,90.266 -0.14,107.673 17.153,-28.608 27.965,-34.578 78.193,-52.082 z"
         id="SVGID_11_" />
    </defs>
    <clipPath
       id="SVGID_12_-3">
      <use
         height="100%"
         width="100%"
         y="0"
         x="0"
         style="overflow:visible"
         id="use92-10"
         overflow="visible"
         xlink:href="#SVGID_11_" />
    </clipPath>
    <defs
       id="defs79">
      <path
         inkscape:connector-curvature="0"
         d="m 272.515,325.577 c 33.958,3.666 103.234,-40.5 67.499,-128.646 C 304.28,108.784 193.61,127.91 178.015,178.665 c -2.951,9.603 45.515,19.72 65.911,58.766 20.397,39.045 12.02,86.357 28.589,88.146 z"
         id="SVGID_9_" />
    </defs>
    <clipPath
       id="SVGID_10_-8">
      <use
         height="100%"
         width="100%"
         y="0"
         x="0"
         style="overflow:visible"
         id="use83-1"
         overflow="visible"
         xlink:href="#SVGID_9_" />
    </clipPath>
    <defs
       id="defs66">
      <path
         inkscape:connector-curvature="0"
         d="m 39.044,291.431 c -9.488,12.649 -30.976,18.263 -32.162,45.265 -1.204,27.397 21.731,76.602 55.191,86.161 33.353,9.529 36.927,-1.191 54,-0.396 16.677,0.775 17.867,-66.309 -11.912,-97.677 -29.582,-31.16 -51.22,-36.132 -65.117,-33.353 z"
         id="SVGID_7_" />
    </defs>
    <clipPath
       id="SVGID_8_">
      <use
         height="100%"
         width="100%"
         y="0"
         x="0"
         style="overflow:visible"
         id="use72"
         overflow="visible"
         xlink:href="#SVGID_7_" />
    </clipPath>
    <defs
       id="defs54">
      <path
         inkscape:connector-curvature="0"
         d="m 138.455,147.16 c 19.295,-6.743 57.285,-29.585 42.676,-41.834 -21.907,7.502 -56.522,-55.105 -120.729,-13.757 -36.87,23.745 12.214,90.266 -0.14,107.673 17.153,-28.608 27.965,-34.578 78.193,-52.082 z"
         id="SVGID_5_" />
    </defs>
    <clipPath
       id="SVGID_6_">
      <use
         height="100%"
         width="100%"
         y="0"
         x="0"
         style="overflow:visible"
         id="use58"
         overflow="visible"
         xlink:href="#SVGID_5_" />
    </clipPath>
    <defs
       id="defs43">
      <path
         inkscape:connector-curvature="0"
         d="m 272.515,325.577 c 33.958,3.666 103.234,-40.5 67.499,-128.646 C 304.28,108.784 193.61,127.91 178.015,178.665 c -2.951,9.603 45.515,19.72 65.911,58.766 20.397,39.045 12.02,86.357 28.589,88.146 z"
         id="SVGID_3_" />
    </defs>
    <clipPath
       id="SVGID_4_">
      <use
         height="100%"
         width="100%"
         y="0"
         x="0"
         style="overflow:visible"
         id="use47"
         overflow="visible"
         xlink:href="#SVGID_3_" />
    </clipPath>
    <defs
       id="defs30">
      <path
         inkscape:connector-curvature="0"
         d="m 272.515,325.577 c 33.958,3.666 103.234,-40.5 67.499,-128.646 C 304.28,108.784 193.61,127.91 178.015,178.665 c -2.951,9.603 45.515,19.72 65.911,58.766 20.397,39.045 12.02,86.357 28.589,88.146 z"
         id="SVGID_1_" />
    </defs>
    <clipPath
       id="SVGID_2_">
      <use
         height="100%"
         width="100%"
         y="0"
         x="0"
         style="overflow:visible"
         id="use36"
         overflow="visible"
         xlink:href="#SVGID_1_" />
    </clipPath>
  </defs>
  <sodipodi:namedview
     id="base"
     pagecolor="#ffffff"
     bordercolor="#666666"
     borderopacity="1.0"
     inkscape:pageopacity="0.0"
     inkscape:pageshadow="2"
     inkscape:zoom="1.979899"
     inkscape:cx="76.037721"
     inkscape:cy="-39.403472"
     inkscape:document-units="px"
     inkscape:current-layer="layer1"
     showgrid="false"
     inkscape:window-width="1920"
     inkscape:window-height="1144"
     inkscape:window-x="0"
     inkscape:window-y="33"
     inkscape:window-maximized="1"
     units="px"
     fit-margin-top="0"
     fit-margin-left="0"
     fit-margin-right="0"
     fit-margin-bottom="0" />
  <metadata
     id="metadata4181">
    <rdf:RDF>
      <cc:Work
         rdf:about="">
        <dc:format>image/svg+xml</dc:format>
        <dc:type
           rdf:resource="http://purl.org/dc/dcmitype/StillImage" />
        <dc:title></dc:title>
      </cc:Work>
    </rdf:RDF>
  </metadata>
  <g
     inkscape:label="Layer 1"
     inkscape:groupmode="layer"
     id="layer1"
     transform="translate(-1.7714935e-8,-1020.3623)">
    <g
       id="g4224"
       transform="matrix(0.84953647,0,0,0.84953647,-55.523943,167.40709)">
      <path
         inkscape:connector-curvature="0"
         id="path4198"
         style="font-style:normal;font-variant:normal;font-weight:normal;font-stretch:normal;font-size:medium;line-height:125%;font-family:Coustard;-inkscape-font-specification:Coustard;letter-spacing:0px;word-spacing:0px;fill:#ed7041;fill-opacity:1;stroke:none;stroke-width:1px;stroke-linecap:butt;stroke-linejoin:miter;stroke-opacity:1"
         d="m 66.442315,1004.0245 q 2.55753,0.266 11.416814,0.266 4.664935,0 8.756983,-0.266 0.450126,0.3069 1.739121,3.9898 1.288995,3.6828 1.288995,4.3989 0,0.1432 -0.163681,0.4092 -0.143222,0.2455 -0.470587,0.5524 -0.306902,0.2865 -0.920711,0.4911 -0.593346,0.2046 -1.370835,0.2046 -0.429665,0 -0.982092,-1.2276 -0.531967,-1.2276 -1.084393,-2.844 -0.552426,-1.6368 -0.777489,-2.046 -1.350376,0 -4.521713,0.02 -3.150877,0 -4.992299,0 -0.306904,0 -0.470585,0.082 -0.163682,0.082 -0.204603,0.1841 -0.02046,0.082 -0.02046,0.2251 l 0,8.3682 q 1.186694,-0.4092 2.925815,-0.7365 1.759581,-0.3274 3.212257,-0.3274 3.31456,0 3.31456,2.6189 0,1.1458 -0.79795,1.9233 -0.777489,0.757 -1.841421,0.757 -1.452678,-1.8823 -3.805605,-1.8823 -1.452678,0 -3.007656,0.3478 l 0,9.8209 q 0,0.3069 0.02046,0.491 0.04092,0.1637 0.143221,0.3888 0.122762,0.2251 0.409205,0.3478 0.286444,0.1023 0.736569,0.1023 0.941171,0 1.616359,0.2455 0.675188,0.2456 0.675188,0.7366 0,1.0639 -0.225062,2.046 -0.204603,0.9617 -0.654728,1.289 -2.925815,-0.225 -5.05368,-0.225 -2.005104,0 -4.889997,0.225 -0.552427,-0.3273 -0.81841,-1.3094 -0.265983,-0.9821 -0.265983,-2.0256 0,-0.491 0.675188,-0.7366 0.675187,-0.2455 1.616358,-0.2455 0.79795,0 1.043473,-0.3274 0.245522,-0.3478 0.245522,-0.9616 l 0,-19.7646 q 0,-0.6138 -0.245522,-0.9411 -0.245523,-0.3479 -1.043473,-0.3479 -2.291546,0 -2.291546,-1.0639 0,-1.0026 0.265983,-1.9642 0.265983,-0.9821 0.81841,-1.289 z" />
      <path
         inkscape:connector-curvature="0"
         id="path4200"
         style="font-style:normal;font-variant:normal;font-weight:normal;font-stretch:normal;font-size:medium;line-height:125%;font-family:Coustard;-inkscape-font-specification:Coustard;letter-spacing:0px;word-spacing:0px;fill:#ed7041;fill-opacity:1;stroke:none;stroke-width:1px;stroke-linecap:butt;stroke-linejoin:miter;stroke-opacity:1"
         d="m 89.378244,1028.8428 q -0.982091,-2.2506 -0.982091,-5.0128 0,-2.7621 0.982091,-4.9923 0.982093,-2.2301 2.618911,-3.601 1.63682,-1.3913 3.662383,-2.1278 2.025565,-0.7366 4.235271,-0.7366 2.189241,0 4.214811,0.7366 2.02556,0.7365 3.64192,2.1278 1.63682,1.3709 2.61891,3.601 0.98209,2.2302 0.98209,4.9923 0,2.7622 -0.98209,5.0128 -0.98209,2.2302 -2.61891,3.6215 -1.61636,1.3913 -3.64192,2.1278 -2.02557,0.7366 -4.214811,0.7366 -2.209706,0 -4.235271,-0.7366 -2.025563,-0.7365 -3.662383,-2.1278 -1.636818,-1.3913 -2.618911,-3.6215 z m 5.790249,-10.8849 q -1.984644,2.1074 -1.984644,5.8721 0,3.7647 1.984644,5.8926 1.984644,2.1074 4.685395,2.1074 1.288992,0 2.475692,-0.5115 1.18669,-0.5115 2.12786,-1.4732 0.96163,-0.982 1.53452,-2.537 0.57289,-1.555 0.57289,-3.4783 0,-1.9232 -0.57289,-3.4782 -0.57289,-1.555 -1.53452,-2.5166 -0.94117,-0.9616 -2.12786,-1.4732 -1.1867,-0.5115 -2.475692,-0.5115 -2.700751,0 -4.685395,2.1074 z" />
      <path
         inkscape:connector-curvature="0"
         id="path4202"
         style="font-style:normal;font-variant:normal;font-weight:normal;font-stretch:normal;font-size:medium;line-height:125%;font-family:Coustard;-inkscape-font-specification:Coustard;letter-spacing:0px;word-spacing:0px;fill:#ed7041;fill-opacity:1;stroke:none;stroke-width:1px;stroke-linecap:butt;stroke-linejoin:miter;stroke-opacity:1"
         d="m 120.41643,1014.7252 0,1.3299 q 0.92071,-1.4731 2.74167,-2.5779 1.82097,-1.1049 3.47825,-1.1049 1.08439,0 2.06648,0.3683 0.98209,0.3478 1.6982,1.2685 0.73656,0.9207 0.73656,2.2506 0,3.642 -3.86698,3.642 -0.0818,0 -0.16368,-0.02 -0.0819,-0.021 -0.14323,-0.061 -0.0409,-0.041 -0.0818,-0.082 -0.0409,-0.041 -0.0818,-0.1228 -0.0205,-0.082 -0.0409,-0.1432 -0.0205,-0.061 -0.0409,-0.1841 -0.0205,-0.1433 -0.0409,-0.2251 0,-0.082 -0.0205,-0.2251 0,-0.1636 -0.0205,-0.2659 l -0.24553,-2.1279 q -0.55243,-0.266 -1.20715,-0.266 -1.18669,0 -2.39385,0.8798 -1.18669,0.8593 -1.75958,2.0051 l 0,10.3529 q 0,0.3069 0.0205,0.491 0.0409,0.1637 0.14322,0.3888 0.12276,0.225 0.40921,0.3478 0.28643,0.1023 0.73656,0.1023 0.77749,0 1.32992,0.2455 0.55243,0.2455 0.55243,0.7366 0,0.9821 -0.32737,1.9437 -0.32736,0.9616 -0.96162,1.2685 -1.43222,-0.1636 -4.19436,-0.1636 -2.76213,0 -4.23527,0.1636 -0.67519,-0.3069 -0.98209,-1.248 -0.3069,-0.9617 -0.3069,-1.9642 0,-0.4911 0.55243,-0.7366 0.55242,-0.2455 1.3299,-0.2455 0.79796,0 1.04348,-0.3274 0.24553,-0.3478 0.24553,-0.9616 l 0,-10.7621 q 0,-1.0844 -0.63427,-1.5345 -0.61382,-0.4501 -2.39385,-0.532 -0.26599,-0.061 -0.34783,-0.266 -0.0614,-0.2046 -0.0614,-0.8797 0,-1.0435 0.22507,-1.8415 0.22506,-0.7979 0.45013,-0.9207 1.45267,0.2251 2.84396,0.2251 0.85934,0 1.8005,-0.1023 0.96163,-0.1228 1.02301,-0.1228 0.71612,0 0.92072,0.3683 0.2046,0.3478 0.2046,1.6368 z" />
      <path
         inkscape:connector-curvature="0"
         id="path4204"
         style="font-style:normal;font-variant:normal;font-weight:normal;font-stretch:normal;font-size:medium;line-height:125%;font-family:Coustard;-inkscape-font-specification:Coustard;letter-spacing:0px;word-spacing:0px;fill:#ed7041;fill-opacity:1;stroke:none;stroke-width:1px;stroke-linecap:butt;stroke-linejoin:miter;stroke-opacity:1"
         d="m 147.11705,1030.6842 q 0.61381,1.1662 0.61381,2.1893 0,0.5728 -0.51151,1.0025 -0.49105,0.4092 -1.289,0.6343 -0.79794,0.225 -1.5959,0.3273 -0.79794,0.1023 -1.55498,0.1023 -1.14577,0 -2.12786,-0.3273 -0.98209,-0.3274 -1.88235,-1.064 -0.87978,-0.757 -1.39129,-2.1687 -0.5115,-1.4323 -0.5115,-3.3964 l 0,-11.867 -0.87979,0 q -2.41432,0 -2.63937,0.02 -0.6752,-0.2455 -0.6752,-1.5755 0,-1.6163 1.02301,-1.6163 l 3.17135,0 q 0.0818,-0.6547 0.14322,-1.6982 0.0818,-1.0639 0.14322,-1.6778 0.0614,-0.6138 0.18415,-1.4526 0.14321,-0.8389 0.36827,-1.3095 0.24553,-0.491 0.61381,-0.9616 0.36828,-0.4706 0.94117,-0.6752 0.59335,-0.2251 1.3913,-0.2251 0.55243,0 0.85933,0.1842 l 0,7.8158 2.72121,0 q 2.43477,0 2.55753,-0.1023 1.02302,0 1.02302,1.7596 0,1.3299 -0.67519,1.5754 -0.67519,-0.061 -2.63938,-0.061 l -2.98719,0 0,11.7442 q 0,3.3964 2.20971,3.3964 1.43222,0 3.3964,-0.5729 z" />
      <path
         inkscape:connector-curvature="0"
         id="path4206"
         style="font-style:normal;font-variant:normal;font-weight:normal;font-stretch:normal;font-size:medium;line-height:125%;font-family:Coustard;-inkscape-font-specification:Coustard;letter-spacing:0px;word-spacing:0px;fill:#ed7041;fill-opacity:1;stroke:none;stroke-width:1px;stroke-linecap:butt;stroke-linejoin:miter;stroke-opacity:1"
         d="m 171.58749,1014.1933 0,14.9973 q 0,0.532 0.0205,0.757 0.0205,0.2251 0.1023,0.5116 0.1023,0.2659 0.30691,0.3682 0.22506,0.082 0.59335,0.1637 0.36828,0.061 0.98209,0.061 0.92071,0 1.16623,0.2251 0.26599,0.225 0.26599,0.9207 0,1.023 -0.24553,1.8209 -0.22506,0.7775 -0.42967,0.9207 -1.4936,-0.1636 -2.76213,-0.1636 -0.83887,0 -1.75957,0.082 -0.90026,0.082 -1.10485,0.082 -0.81842,0 -1.00257,-0.491 -0.16368,-0.491 -0.16368,-2.6189 -1.4322,1.6573 -3.45778,2.578 -2.00509,0.9207 -4.09204,0.9207 -1.51406,0 -2.84398,-0.5115 -1.30946,-0.4911 -2.37339,-1.4732 -1.06393,-0.982 -1.67774,-2.6393 -0.6138,-1.6573 -0.6138,-3.7852 l 0,-8.2045 q 0,-1.9438 -1.02301,-2.0256 -0.16368,-0.02 -0.47059,-0.041 -0.28645,-0.02 -0.47059,-0.041 -0.16367,-0.021 -0.4092,-0.041 -0.24552,-0.041 -0.38874,-0.061 -0.14323,-0.041 -0.34783,-0.082 -0.18415,-0.061 -0.28644,-0.1227 -0.1023,-0.061 -0.2046,-0.1433 -0.1023,-0.082 -0.14322,-0.1841 -0.0409,-0.1228 -0.0409,-0.266 0,-2.3734 0.67518,-2.9872 1.92327,0.2251 3.53963,0.2251 1.12531,0 2.29154,-0.1023 1.1867,-0.1228 1.22762,-0.1228 0.69564,0 0.69564,1.4732 l 0,12.9718 q 0,2.2506 1.16623,3.3759 1.16625,1.1253 2.9872,1.1253 1.55498,0 3.0895,-0.8184 1.55498,-0.8184 2.55753,-2.2302 l 0,-9.9027 q 0,-1.9438 -1.02301,-2.0256 -0.16368,-0.02 -0.47059,-0.041 -0.28644,-0.02 -0.47059,-0.041 -0.16367,-0.021 -0.4092,-0.041 -0.24552,-0.041 -0.38874,-0.061 -0.14323,-0.041 -0.34783,-0.082 -0.18414,-0.061 -0.28645,-0.1227 -0.10229,-0.061 -0.20459,-0.1433 -0.1023,-0.082 -0.14322,-0.1841 -0.0409,-0.1228 -0.0409,-0.266 0,-2.3938 0.67518,-2.9872 1.92327,0.2251 3.53963,0.2251 1.35038,0 2.74166,-0.1023 1.41176,-0.1228 1.45268,-0.1228 0.0205,0 0.0205,1.4732 z" />
      <path
         inkscape:connector-curvature="0"
         id="path4208"
         style="font-style:normal;font-variant:normal;font-weight:normal;font-stretch:normal;font-size:medium;line-height:125%;font-family:Coustard;-inkscape-font-specification:Coustard;letter-spacing:0px;word-spacing:0px;fill:#ed7041;fill-opacity:1;stroke:none;stroke-width:1px;stroke-linecap:butt;stroke-linejoin:miter;stroke-opacity:1"
         d="m 202.17555,1034.9399 q -1.98463,-0.1636 -3.58053,-0.1636 -1.04347,0 -2.2711,0.082 -1.22761,0.082 -1.61635,0.082 -0.69565,0 -0.69565,-1.5549 l 0,-12.2557 q 0,-2.6599 -0.85933,-3.8875 -0.85933,-1.248 -2.25062,-1.248 -1.43222,0 -3.15089,0.8184 -1.6982,0.7979 -3.1918,2.046 l 0,10.7825 q 0,0.3069 0.0205,0.4911 0.0409,0.1637 0.14323,0.3887 0.12276,0.2251 0.4092,0.3479 0.28645,0.1023 0.73657,0.1023 0.77749,0 1.32991,0.2455 0.55243,0.2455 0.55243,0.7365 0,2.3939 -0.67518,2.9872 -1.24808,-0.1636 -4.6854,-0.1636 -3.43732,0 -4.97184,0.1636 -0.67519,-0.6138 -0.67519,-2.9872 0,-0.491 0.55243,-0.7365 0.55243,-0.2455 1.32992,-0.2455 0.79794,0 1.04347,-0.3274 0.24552,-0.3478 0.24552,-0.9616 l 0,-10.9872 q 0,-1.0844 -0.63427,-1.5345 -0.6138,-0.4501 -2.39385,-0.532 -0.26597,-0.061 -0.34781,-0.266 -0.0614,-0.2046 -0.0614,-0.8797 0,-1.0435 0.22505,-1.8415 0.22506,-0.7979 0.45013,-0.9207 1.35037,0.2251 2.63937,0.2251 0.92071,0 1.94373,-0.1023 1.02301,-0.1228 1.08439,-0.1228 0.7161,0 0.92071,0.3683 0.22506,0.3478 0.22506,1.6368 0,0.1432 -0.0205,0.532 0,0.3683 0,0.5933 1.75959,-1.5549 3.98975,-2.5166 2.23016,-0.9616 4.29665,-0.9616 2.86443,0 4.64447,2.0256 1.78005,2.0255 1.78005,6.3631 l 0,8.7979 q 0,1.3299 1.02301,1.4118 0.2046,0.02 0.53196,0.041 0.34782,0.02 0.53197,0.041 0.2046,0.021 0.49105,0.061 0.28643,0.02 0.45011,0.061 0.16369,0.02 0.36829,0.082 0.22507,0.041 0.34783,0.1023 0.12276,0.061 0.22506,0.1432 0.12277,0.082 0.16369,0.2046 0.0614,0.1023 0.0614,0.2455 0,2.3734 -0.67519,2.9872 z" />
      <path
         inkscape:connector-curvature="0"
         id="path4210"
         style="font-style:normal;font-variant:normal;font-weight:normal;font-stretch:normal;font-size:350px;line-height:125%;font-family:Coustard;-inkscape-font-specification:Coustard;letter-spacing:0px;word-spacing:0px;fill:#ed7041;fill-opacity:1;stroke:none;stroke-width:1px;stroke-linecap:butt;stroke-linejoin:miter;stroke-opacity:1"
         d="m 225.2547,1022.6843 q 0,0.9411 -0.49104,1.4526 -0.47059,0.4911 -1.8005,0.4911 l -14.11757,0 q 0.0819,1.8619 0.65473,3.2122 0.57289,1.3504 1.51406,2.1279 0.94118,0.757 2.06649,1.1253 1.12531,0.3478 2.45522,0.3478 1.86188,0 3.80561,-0.6547 1.94372,-0.6547 3.51916,-1.8414 1.16623,1.3708 1.16623,2.7007 0,0.8798 -1.16623,1.7392 -1.16624,0.8388 -3.15087,1.3913 -1.98465,0.5524 -4.13297,0.5524 -1.75959,0 -3.35549,-0.3478 -1.57543,-0.3479 -3.10995,-1.2072 -1.51406,-0.8798 -2.61891,-2.2097 -1.10485,-1.3299 -1.78005,-3.4169 -0.67518,-2.0869 -0.67518,-4.7263 0,-2.578 0.98209,-4.7263 0.98209,-2.1483 2.59845,-3.4987 1.61636,-1.3708 3.601,-2.1074 2.00511,-0.7366 4.11251,-0.7366 1.55498,0 2.9872,0.3888 1.43222,0.3887 2.70075,1.2276 1.26854,0.8184 2.2097,2.0256 0.94117,1.1867 1.47314,2.9053 0.55242,1.7187 0.55242,3.7852 z m -4.13296,-1.2277 q -0.18414,-2.8439 -1.8005,-4.3171 -1.5959,-1.4936 -3.82607,-1.4936 -2.37338,0 -4.31711,1.5959 -1.92326,1.5755 -2.2097,4.2148 l 12.15338,0 z" />
      <path
         inkscape:connector-curvature="0"
         id="path4212"
         style="font-style:normal;font-variant:normal;font-weight:normal;font-stretch:normal;font-size:350px;line-height:125%;font-family:Coustard;-inkscape-font-specification:Coustard;letter-spacing:0px;word-spacing:0px;fill:#ed7041;fill-opacity:1;stroke:none;stroke-width:1px;stroke-linecap:butt;stroke-linejoin:miter;stroke-opacity:1"
         d="m 227.44396,1031.9732 q 0,-1.4117 0.94116,-2.3734 0.94117,-0.9616 2.76214,-0.9616 1.78004,0 2.68029,0.9821 0.90025,0.9616 0.90025,2.3529 0,1.3708 -0.90025,2.3529 -0.90025,0.9821 -2.68029,0.9821 -1.82097,0 -2.76214,-0.9616 -0.94116,-0.9821 -0.94116,-2.3734 z" />
      <path
         inkscape:connector-curvature="0"
         id="path4214"
         style="font-style:normal;font-variant:normal;font-weight:normal;font-stretch:normal;font-size:medium;line-height:125%;font-family:Coustard;-inkscape-font-specification:Coustard;letter-spacing:0px;word-spacing:0px;fill:#ed7041;fill-opacity:1;stroke:none;stroke-width:1px;stroke-linecap:butt;stroke-linejoin:miter;stroke-opacity:1"
         d="m 245.94002,1009.3033 q -0.49105,0 -1.00257,-0.082 -0.51149,-0.1023 -1.12531,-0.3478 -0.59334,-0.2455 -0.98209,-0.7775 -0.36828,-0.532 -0.36828,-1.2685 0,-2.5166 3.3964,-2.5166 0.96163,0 1.61635,0.2455 0.6752,0.2455 0.9821,0.6547 0.32736,0.4092 0.45012,0.798 0.12276,0.3887 0.12276,0.8388 0,0.9207 -0.57288,1.5141 -0.57289,0.5933 -1.22761,0.7775 -0.63427,0.1637 -1.28899,0.1637 z m 3.37593,5.4219 0,16.9002 q 0,1.3708 -0.1023,2.5166 -0.0818,1.1253 -0.32737,2.312 -0.24551,1.2072 -0.7161,2.1074 -0.45013,0.9003 -1.12531,1.6164 -0.6752,0.7365 -1.69821,1.1253 -1.02301,0.3887 -2.33246,0.3887 -1.04347,0 -2.08695,-0.225 -1.02301,-0.2046 -2.04602,-0.6752 -1.00255,-0.4502 -1.63682,-1.3299 -0.61381,-0.8594 -0.61381,-2.0051 0,-0.8389 0.69565,-1.3504 0.69565,-0.4911 1.61636,-0.4911 0.73656,0 1.16623,0.2456 0.42967,0.2455 0.61381,0.5933 0.18414,0.3478 0.34782,0.6956 0.16368,0.3479 0.53197,0.5934 0.38875,0.2455 1.06393,0.2455 0.65473,0 1.06393,-0.3478 0.42967,-0.3274 0.61381,-1.0435 0.20461,-0.6956 0.26599,-1.4527 0.0614,-0.7365 0.0614,-1.9028 l 0,-14.5472 q 0,-1.0844 -0.67519,-1.5345 -0.65472,-0.4501 -2.55753,-0.532 -0.26599,-0.061 -0.34783,-0.266 -0.0614,-0.2046 -0.0614,-0.8797 0,-1.0231 0.22506,-1.821 0.24553,-0.8184 0.45013,-0.9412 1.9028,0.2251 3.66238,0.2251 0.85933,0 1.80051,-0.1023 0.94117,-0.1228 1.00255,-0.1228 0.7161,0 0.92071,0.3683 0.22506,0.3478 0.22506,1.6368 z" />
      <path
         inkscape:connector-curvature="0"
         id="path4216"
         style="font-style:normal;font-variant:normal;font-weight:normal;font-stretch:normal;font-size:medium;line-height:125%;font-family:Coustard;-inkscape-font-specification:Coustard;letter-spacing:0px;word-spacing:0px;fill:#ed7041;fill-opacity:1;stroke:none;stroke-width:1px;stroke-linecap:butt;stroke-linejoin:miter;stroke-opacity:1"
         d="m 269.83757,1029.3543 q 0,2.0665 -1.26854,3.4373 -1.24807,1.3504 -3.31455,1.9437 -2.06649,0.5934 -4.88999,0.5934 -4.33758,0 -6.79281,-1.2481 -2.43476,-1.2481 -2.43476,-3.8261 0,-2.9258 3.58054,-2.9258 0.57288,0 0.75702,0.2251 0.18414,0.2251 0.18414,0.8593 l 0,2.7826 q 0.75704,0.4092 2.23017,0.6343 1.4936,0.225 3.00766,0.225 1.8005,0 2.96673,-0.7365 1.1867,-0.757 1.1867,-2.0665 0,-0.9207 -0.59336,-1.6368 -0.59334,-0.7366 -1.55496,-1.1867 -0.96164,-0.4501 -2.20972,-0.9003 -1.22761,-0.4706 -2.51661,-0.8593 -1.26853,-0.3887 -2.51661,-0.9821 -1.22761,-0.5933 -2.18924,-1.289 -0.96163,-0.6956 -1.55498,-1.8209 -0.59335,-1.1254 -0.59335,-2.5371 0,-1.821 1.35037,-3.1509 1.35038,-1.3299 3.29411,-1.9233 1.96418,-0.5933 4.19435,-0.5933 9.16619,0 9.16619,5.3197 0,0.3273 -0.12276,0.6956 -0.1023,0.3683 -0.42967,0.8593 -0.30691,0.4911 -1.06393,0.8184 -0.73657,0.307 -1.82097,0.307 -0.2046,0 -0.34781,-0.041 -0.12277,-0.041 -0.20461,-0.082 -0.0614,-0.061 -0.12276,-0.1842 -0.0409,-0.1432 -0.0614,-0.2046 0,-0.061 -0.0409,-0.2659 -0.0205,-0.2251 -0.0205,-0.3069 l -0.28645,-2.8645 q -0.28644,-0.2864 -1.78003,-0.6342 -1.47314,-0.3479 -2.53708,-0.3479 -2.08694,0 -3.10995,0.7775 -1.00255,0.7775 -1.00255,1.9642 0,0.8593 0.73656,1.5141 0.75703,0.6547 1.94373,1.1253 1.18669,0.4501 2.61891,0.9002 1.43221,0.4502 2.86443,1.0844 1.43221,0.6138 2.61891,1.4118 1.18669,0.7979 1.92326,2.1278 0.75703,1.3095 0.75703,3.0077 z" />
    </g>
  </g>
</svg>
