<?xml version="1.0" encoding="UTF-8" standalone="no"?>
<!-- Created with Inkscape (http://www.inkscape.org/) -->

<svg
   xmlns:dc="http://purl.org/dc/elements/1.1/"
   xmlns:cc="http://creativecommons.org/ns#"
   xmlns:rdf="http://www.w3.org/1999/02/22-rdf-syntax-ns#"
   xmlns:svg="http://www.w3.org/2000/svg"
   xmlns="http://www.w3.org/2000/svg"
   xmlns:xlink="http://www.w3.org/1999/xlink"
   xmlns:sodipodi="http://sodipodi.sourceforge.net/DTD/sodipodi-0.dtd"
   xmlns:inkscape="http://www.inkscape.org/namespaces/inkscape"
   width="286"
   height="64"
   viewBox="0 0 286 63.999998"
   id="svg4176"
   version="1.1"
   inkscape:version="0.91 r13725"
   sodipodi:docname="fortune_logo.svg">
  <defs
     id="defs4178">
    <clipPath
       id="SVGID_10_">
      <use
         xlink:href="#SVGID_9_"
         overflow="visible"
         id="use83"
         style="overflow:visible"
         x="0"
         y="0"
         width="100%"
         height="100%" />
    </clipPath>
    <clipPath
       id="SVGID_12_">
      <use
         xlink:href="#SVGID_11_"
         overflow="visible"
         id="use92"
         style="overflow:visible"
         x="0"
         y="0"
         width="100%"
         height="100%" />
    </clipPath>
    <clipPath
       id="SVGID_10_-6">
      <use
         xlink:href="#SVGID_9_"
         overflow="visible"
         id="use83-8"
         style="overflow:visible"
         x="0"
         y="0"
         width="100%"
         height="100%" />
    </clipPath>
    <clipPath
       id="SVGID_12_-6">
      <use
         xlink:href="#SVGID_11_"
         overflow="visible"
         id="use92-5"
         style="overflow:visible"
         x="0"
         y="0"
         width="100%"
         height="100%" />
    </clipPath>
    <clipPath
       id="SVGID_12_-64">
      <use
         xlink:href="#SVGID_11_"
         overflow="visible"
         id="use92-1"
         style="overflow:visible"
         x="0"
         y="0"
         width="100%"
         height="100%" />
    </clipPath>
    <clipPath
       id="SVGID_10_-2">
      <use
         xlink:href="#SVGID_9_"
         overflow="visible"
         id="use83-2"
         style="overflow:visible"
         x="0"
         y="0"
         width="100%"
         height="100%" />
    </clipPath>
    <clipPath
       id="SVGID_10_-9">
      <use
         xlink:href="#SVGID_9_"
         overflow="visible"
         id="use83-9"
         style="overflow:visible"
         x="0"
         y="0"
         width="100%"
         height="100%" />
    </clipPath>
    <clipPath
       id="SVGID_12_-0">
      <use
         xlink:href="#SVGID_11_"
         overflow="visible"
         id="use92-51"
         style="overflow:visible"
         x="0"
         y="0"
         width="100%"
         height="100%" />
    </clipPath>
    <defs
       id="defs88">
      <path
         inkscape:connector-curvature="0"
         d="m 138.455,147.16 c 19.295,-6.743 57.285,-29.585 42.676,-41.834 -21.907,7.502 -56.522,-55.105 -120.729,-13.757 -36.87,23.745 12.214,90.266 -0.14,107.673 17.153,-28.608 27.965,-34.578 78.193,-52.082 z"
         id="SVGID_11_" />
    </defs>
    <clipPath
       id="SVGID_12_-3">
      <use
         height="100%"
         width="100%"
         y="0"
         x="0"
         style="overflow:visible"
         id="use92-10"
         overflow="visible"
         xlink:href="#SVGID_11_" />
    </clipPath>
    <defs
       id="defs79">
      <path
         inkscape:connector-curvature="0"
         d="m 272.515,325.577 c 33.958,3.666 103.234,-40.5 67.499,-128.646 C 304.28,108.784 193.61,127.91 178.015,178.665 c -2.951,9.603 45.515,19.72 65.911,58.766 20.397,39.045 12.02,86.357 28.589,88.146 z"
         id="SVGID_9_" />
    </defs>
    <clipPath
       id="SVGID_10_-8">
      <use
         height="100%"
         width="100%"
         y="0"
         x="0"
         style="overflow:visible"
         id="use83-1"
         overflow="visible"
         xlink:href="#SVGID_9_" />
    </clipPath>
    <defs
       id="defs66">
      <path
         inkscape:connector-curvature="0"
         d="m 39.044,291.431 c -9.488,12.649 -30.976,18.263 -32.162,45.265 -1.204,27.397 21.731,76.602 55.191,86.161 33.353,9.529 36.927,-1.191 54,-0.396 16.677,0.775 17.867,-66.309 -11.912,-97.677 -29.582,-31.16 -51.22,-36.132 -65.117,-33.353 z"
         id="SVGID_7_" />
    </defs>
    <clipPath
       id="SVGID_8_">
      <use
         height="100%"
         width="100%"
         y="0"
         x="0"
         style="overflow:visible"
         id="use72"
         overflow="visible"
         xlink:href="#SVGID_7_" />
    </clipPath>
    <defs
       id="defs54">
      <path
         inkscape:connector-curvature="0"
         d="m 138.455,147.16 c 19.295,-6.743 57.285,-29.585 42.676,-41.834 -21.907,7.502 -56.522,-55.105 -120.729,-13.757 -36.87,23.745 12.214,90.266 -0.14,107.673 17.153,-28.608 27.965,-34.578 78.193,-52.082 z"
         id="SVGID_5_" />
    </defs>
    <clipPath
       id="SVGID_6_">
      <use
         height="100%"
         width="100%"
         y="0"
         x="0"
         style="overflow:visible"
         id="use58"
         overflow="visible"
         xlink:href="#SVGID_5_" />
    </clipPath>
    <defs
       id="defs43">
      <path
         inkscape:connector-curvature="0"
         d="m 272.515,325.577 c 33.958,3.666 103.234,-40.5 67.499,-128.646 C 304.28,108.784 193.61,127.91 178.015,178.665 c -2.951,9.603 45.515,19.72 65.911,58.766 20.397,39.045 12.02,86.357 28.589,88.146 z"
         id="SVGID_3_" />
    </defs>
    <clipPath
       id="SVGID_4_">
      <use
         height="100%"
         width="100%"
         y="0"
         x="0"
         style="overflow:visible"
         id="use47"
         overflow="visible"
         xlink:href="#SVGID_3_" />
    </clipPath>
    <defs
       id="defs30">
      <path
         inkscape:connector-curvature="0"
         d="m 272.515,325.577 c 33.958,3.666 103.234,-40.5 67.499,-128.646 C 304.28,108.784 193.61,127.91 178.015,178.665 c -2.951,9.603 45.515,19.72 65.911,58.766 20.397,39.045 12.02,86.357 28.589,88.146 z"
         id="SVGID_1_" />
    </defs>
    <clipPath
       id="SVGID_2_">
      <use
         height="100%"
         width="100%"
         y="0"
         x="0"
         style="overflow:visible"
         id="use36"
         overflow="visible"
         xlink:href="#SVGID_1_" />
    </clipPath>
  </defs>
  <sodipodi:namedview
     id="base"
     pagecolor="#ffffff"
     bordercolor="#666666"
     borderopacity="1.0"
     inkscape:pageopacity="0.0"
     inkscape:pageshadow="2"
     inkscape:zoom="0.70000001"
     inkscape:cx="49.035719"
     inkscape:cy="-276.03715"
     inkscape:document-units="px"
     inkscape:current-layer="layer1"
     showgrid="false"
     inkscape:window-width="1440"
     inkscape:window-height="844"
     inkscape:window-x="0"
     inkscape:window-y="33"
     inkscape:window-maximized="1"
     units="px"
     fit-margin-top="0"
     fit-margin-left="0"
     fit-margin-right="0"
     fit-margin-bottom="0" />
  <metadata
     id="metadata4181">
    <rdf:RDF>
      <cc:Work
         rdf:about="">
        <dc:format>image/svg+xml</dc:format>
        <dc:type
           rdf:resource="http://purl.org/dc/dcmitype/StillImage" />
        <dc:title></dc:title>
      </cc:Work>
    </rdf:RDF>
  </metadata>
  <g
     inkscape:label="Layer 1"
     inkscape:groupmode="layer"
     id="layer1"
     transform="translate(-1.7714935e-8,-988.36226)">
    <g
       id="g4224"
       transform="matrix(0.1266208,0,0,0.1266208,-0.75678999,943.95811)">
      <g
         style="font-style:normal;font-variant:normal;font-weight:normal;font-stretch:normal;font-size:350px;line-height:125%;font-family:Coustard;-inkscape-font-specification:Coustard;letter-spacing:0px;word-spacing:0px;fill:#ed7041;fill-opacity:1;stroke:none;stroke-width:1px;stroke-linecap:butt;stroke-linejoin:miter;stroke-opacity:1"
         id="text4812"
         transform="matrix(0.9455132,0,0,0.9455132,35.405073,29.84686)">
        <path
           d="m 658.84937,474.3692 q 21.3623,2.22168 95.36132,2.22168 38.96485,0 73.14453,-2.22168 3.75977,2.56348 14.52637,33.3252 10.7666,30.76172 10.7666,36.74316 0,1.19629 -1.36718,3.41797 -1.19629,2.05078 -3.93067,4.61426 -2.56347,2.39258 -7.69043,4.10156 -4.95605,1.70898 -11.45019,1.70898 -3.58887,0 -8.20313,-10.2539 -4.44336,-10.25391 -9.05762,-23.75488 -4.61425,-13.67188 -6.49414,-17.08985 -11.27929,0 -37.76855,0.1709 -26.31836,0 -41.69922,0 -2.56348,0 -3.93066,0.68359 -1.36719,0.6836 -1.70899,1.53809 -0.1709,0.68359 -0.1709,1.87988 l 0,69.89746 q 9.91211,-3.41797 24.43848,-6.15234 14.69727,-2.73438 26.83105,-2.73438 27.68555,0 27.68555,21.875 0,9.57032 -6.66504,16.06446 -6.49414,6.32324 -15.38086,6.32324 -12.13379,-15.72266 -31.78711,-15.72266 -12.13379,0 -25.12207,2.90528 l 0,82.03125 q 0,2.56347 0.1709,4.10156 0.3418,1.36719 1.19629,3.24707 1.02539,1.87988 3.41797,2.90527 2.39258,0.8545 6.15234,0.8545 7.86133,0 13.50098,2.05078 5.63965,2.05078 5.63965,6.15234 0,8.88672 -1.87988,17.08984 -1.70899,8.03223 -5.46875,10.76661 -24.43848,-1.87989 -42.21192,-1.87989 -16.74805,0 -40.84472,1.87989 -4.61426,-2.73438 -6.83594,-10.9375 -2.22168,-8.20313 -2.22168,-16.91895 0,-4.10156 5.63965,-6.15234 5.63964,-2.05078 13.50097,-2.05078 6.66504,0 8.71582,-2.73438 2.05078,-2.90527 2.05078,-8.03223 l 0,-165.08789 q 0,-5.12695 -2.05078,-7.86132 -2.05078,-2.90528 -8.71582,-2.90528 -19.14062,0 -19.14062,-8.88672 0,-8.37402 2.22168,-16.40625 2.22168,-8.20312 6.83594,-10.7666 z"
           style="letter-spacing:0px;fill:#ed7041;fill-opacity:1"
           id="path4198"
           inkscape:connector-curvature="0" />
        <path
           d="m 850.42651,681.66901 q -8.20312,-18.79883 -8.20312,-41.87012 0,-23.07129 8.20312,-41.69922 8.20313,-18.62793 21.875,-30.07812 13.67188,-11.6211 30.59082,-17.77344 16.91895,-6.15235 35.37598,-6.15235 18.28613,0 35.20508,6.15235 16.91894,6.15234 30.41991,17.77344 13.6719,11.45019 21.875,30.07812 8.2031,18.62793 8.2031,41.69922 0,23.07129 -8.2031,41.87012 -8.2031,18.62793 -21.875,30.24902 -13.50097,11.62109 -30.41991,17.77344 -16.91895,6.15234 -35.20508,6.15234 -18.45703,0 -35.37598,-6.15234 -16.91894,-6.15235 -30.59082,-17.77344 -13.67187,-11.62109 -21.875,-30.24902 z m 48.36426,-90.91797 q -16.57715,17.60254 -16.57715,49.04785 0,31.44531 16.57715,49.21875 16.57715,17.60254 39.13574,17.60254 10.76661,0 20.67871,-4.27246 9.91211,-4.27246 17.77344,-12.30469 8.03223,-8.20313 12.81738,-21.19141 4.78516,-12.98828 4.78516,-29.05273 0,-16.06445 -4.78516,-29.05274 -4.78515,-12.98828 -12.81738,-21.0205 -7.86133,-8.03223 -17.77344,-12.30469 -9.9121,-4.27246 -20.67871,-4.27246 -22.55859,0 -39.13574,17.60254 z"
           style="letter-spacing:0px;fill:#ed7041;fill-opacity:1"
           id="path4200"
           inkscape:connector-curvature="0" />
        <path
           d="m 1109.6794,563.74908 0,11.1084 q 7.6905,-12.30468 22.9004,-21.5332 15.21,-9.22852 29.0528,-9.22852 9.0576,0 17.2607,3.07618 8.2031,2.90527 14.1846,10.5957 6.1523,7.69043 6.1523,18.79883 0,30.41992 -32.2998,30.41992 -0.6836,0 -1.3672,-0.1709 -0.6836,-0.1709 -1.1963,-0.51269 -0.3418,-0.3418 -0.6836,-0.6836 -0.3417,-0.3418 -0.6835,-1.02539 -0.1709,-0.68359 -0.3418,-1.19629 -0.1709,-0.51269 -0.3418,-1.53808 -0.1709,-1.19629 -0.3418,-1.87989 0,-0.68359 -0.1709,-1.87988 0,-1.36719 -0.1709,-2.22168 l -2.0508,-17.77344 q -4.6143,-2.22168 -10.083,-2.22168 -9.9121,0 -19.9951,7.34864 -9.9121,7.17773 -14.6973,16.74804 l 0,86.47461 q 0,2.56348 0.1709,4.10157 0.3418,1.36718 1.1963,3.24707 1.0254,1.87988 3.418,2.90527 2.3925,0.85449 6.1523,0.85449 6.4941,0 11.1084,2.05078 4.6143,2.05078 4.6143,6.15235 0,8.20312 -2.7344,16.23535 -2.7344,8.03222 -8.0322,10.5957 -11.9629,-1.36719 -35.0342,-1.36719 -23.0713,0 -35.376,1.36719 -5.6397,-2.56348 -8.2031,-10.4248 -2.5635,-8.03223 -2.5635,-16.40625 0,-4.10157 4.6143,-6.15235 4.6142,-2.05078 11.1083,-2.05078 6.6651,0 8.7159,-2.73437 2.0508,-2.90528 2.0508,-8.03223 l 0,-89.89258 q 0,-9.05762 -5.2979,-12.81738 -5.127,-3.75977 -19.9951,-4.44336 -2.2217,-0.5127 -2.9053,-2.22168 -0.5127,-1.70898 -0.5127,-7.34863 0,-8.71582 1.8799,-15.38086 1.8799,-6.66504 3.7598,-7.69043 12.1338,1.87988 23.7548,1.87988 7.1778,0 15.0391,-0.85449 8.0322,-1.02539 8.5449,-1.02539 5.9815,0 7.6905,3.07617 1.7089,2.90527 1.7089,13.67187 z"
           style="letter-spacing:0px;fill:#ed7041;fill-opacity:1"
           id="path4202"
           inkscape:connector-curvature="0" />
        <path
           d="m 1332.7019,697.04987 q 5.127,9.74121 5.127,18.28613 0,4.78515 -4.2725,8.37402 -4.1016,3.41797 -10.7666,5.29785 -6.665,1.87989 -13.3301,2.73438 -6.665,0.85449 -12.9883,0.85449 -9.5703,0 -17.7734,-2.73437 -8.2031,-2.73438 -15.7227,-8.88672 -7.3486,-6.32325 -11.6211,-18.11524 -4.2724,-11.96289 -4.2724,-28.36914 l 0,-99.12109 -7.3486,0 q -20.1661,0 -22.0459,0.1709 -5.6397,-2.05078 -5.6397,-13.15918 0,-13.50098 8.5449,-13.50098 l 26.4893,0 q 0.6836,-5.46875 1.1963,-14.18457 0.6836,-8.88672 1.1963,-14.01367 0.5127,-5.12695 1.5381,-12.13379 1.1962,-7.00684 3.0761,-10.9375 2.0508,-4.10156 5.127,-8.03223 3.0761,-3.93066 7.8613,-5.63965 4.9561,-1.87988 11.6211,-1.87988 4.6143,0 7.1777,1.53809 l 0,65.2832 22.7295,0 q 20.3369,0 21.3623,-0.85449 8.545,0 8.545,14.69726 0,11.1084 -5.6397,13.15918 -5.6396,-0.51269 -22.0459,-0.51269 l -24.9512,0 0,98.0957 q 0,28.36914 18.4571,28.36914 11.9629,0 28.3691,-4.78515 z"
           style="letter-spacing:0px;fill:#ed7041;fill-opacity:1"
           id="path4204"
           inkscape:connector-curvature="0" />
        <path
           d="m 1537.0964,559.30573 0,125.26855 q 0,4.44336 0.1709,6.32324 0.1709,1.87988 0.8545,4.27246 0.8545,2.22168 2.5635,3.07617 1.8799,0.6836 4.9561,1.36719 3.0761,0.5127 8.2031,0.5127 7.6904,0 9.7412,1.87988 2.2217,1.87988 2.2217,7.69043 0,8.54492 -2.0508,15.20996 -1.8799,6.49414 -3.5889,7.69043 -12.4756,-1.36719 -23.0713,-1.36719 -7.0068,0 -14.6972,0.6836 -7.5196,0.68359 -9.2285,0.68359 -6.836,0 -8.3741,-4.10156 -1.3672,-4.10156 -1.3672,-21.875 -11.9628,13.84277 -28.8818,21.5332 -16.748,7.69043 -34.1797,7.69043 -12.6465,0 -23.7549,-4.27246 -10.9375,-4.10156 -19.8242,-12.30469 -8.8867,-8.20312 -14.0137,-22.0459 -5.1269,-13.84277 -5.1269,-31.61621 l 0,-68.53027 q 0,-16.23535 -8.5449,-16.91895 -1.3672,-0.17089 -3.9307,-0.34179 -2.3926,-0.1709 -3.9307,-0.3418 -1.3671,-0.1709 -3.4179,-0.3418 -2.0508,-0.34179 -3.2471,-0.51269 -1.1963,-0.3418 -2.9053,-0.6836 -1.5381,-0.51269 -2.3925,-1.02539 -0.8545,-0.51269 -1.709,-1.19628 -0.8545,-0.6836 -1.1963,-1.53809 -0.3418,-1.02539 -0.3418,-2.22168 0,-19.82422 5.6396,-24.95117 16.0645,1.87988 29.5655,1.87988 9.3994,0 19.1406,-0.85449 9.9121,-1.02539 10.2539,-1.02539 5.8105,0 5.8105,12.30469 l 0,108.3496 q 0,18.79883 9.7412,28.19825 9.7413,9.39941 24.9512,9.39941 12.9883,0 25.8057,-6.83594 12.9883,-6.83593 21.3623,-18.62793 l 0,-82.71484 q 0,-16.23535 -8.5449,-16.91895 -1.3672,-0.17089 -3.9307,-0.34179 -2.3926,-0.1709 -3.9307,-0.3418 -1.3671,-0.1709 -3.4179,-0.3418 -2.0508,-0.34179 -3.2471,-0.51269 -1.1963,-0.3418 -2.9053,-0.6836 -1.5381,-0.51269 -2.3926,-1.02539 -0.8544,-0.51269 -1.7089,-1.19628 -0.8545,-0.6836 -1.1963,-1.53809 -0.3418,-1.02539 -0.3418,-2.22168 0,-19.99512 5.6396,-24.95117 16.0645,1.87988 29.5655,1.87988 11.2793,0 22.9003,-0.85449 11.792,-1.02539 12.1338,-1.02539 0.1709,0 0.1709,12.30469 z"
           style="letter-spacing:0px;fill:#ed7041;fill-opacity:1"
           id="path4206"
           inkscape:connector-curvature="0" />
        <path
           d="m 1792.5896,732.59674 q -16.5771,-1.36719 -29.9072,-1.36719 -8.7158,0 -18.9698,0.6836 -10.2539,0.68359 -13.5009,0.68359 -5.8106,0 -5.8106,-12.98828 l 0,-102.36816 q 0,-22.2168 -7.1777,-32.47071 -7.1777,-10.4248 -18.7988,-10.4248 -11.9629,0 -26.3184,6.83594 -14.1846,6.66503 -26.6602,17.08984 l 0,90.06348 q 0,2.56347 0.1709,4.10156 0.3418,1.36719 1.1963,3.24707 1.0254,1.87988 3.418,2.90527 2.3926,0.85449 6.1523,0.85449 6.4942,0 11.1084,2.05079 4.6143,2.05078 4.6143,6.15234 0,19.99512 -5.6396,24.95117 -10.4249,-1.36719 -39.1358,-1.36719 -28.7109,0 -41.5283,1.36719 -5.6397,-5.12695 -5.6397,-24.95117 0,-4.10156 4.6143,-6.15234 4.6143,-2.05079 11.1084,-2.05079 6.665,0 8.7158,-2.73437 2.0508,-2.90527 2.0508,-8.03223 l 0,-91.77246 q 0,-9.05762 -5.2979,-12.81738 -5.1269,-3.75977 -19.9951,-4.44336 -2.2216,-0.5127 -2.9052,-2.22168 -0.5127,-1.70898 -0.5127,-7.34863 0,-8.71582 1.8798,-15.38086 1.8799,-6.66504 3.7598,-7.69043 11.2793,1.87988 22.0459,1.87988 7.6904,0 16.2354,-0.85449 8.5449,-1.02539 9.0576,-1.02539 5.9814,0 7.6904,3.07617 1.8799,2.90527 1.8799,13.67187 0,1.19629 -0.1709,4.44336 0,3.07618 0,4.95606 14.6973,-12.98828 33.3252,-21.02051 18.6279,-8.03223 35.8887,-8.03223 23.9257,0 38.7939,16.91895 14.8682,16.91894 14.8682,53.14941 l 0,73.48633 q 0,11.1084 8.5449,11.79199 1.709,0.1709 4.4433,0.3418 2.9053,0.1709 4.4434,0.3418 1.709,0.1709 4.1016,0.51269 2.3925,0.1709 3.7597,0.5127 1.3672,0.1709 3.0762,0.68359 1.8799,0.3418 2.9053,0.85449 1.0254,0.5127 1.8799,1.19629 1.0254,0.6836 1.3672,1.70899 0.5126,0.85449 0.5126,2.05078 0,19.82422 -5.6396,24.95117 z"
           style="letter-spacing:0px;fill:#ed7041;fill-opacity:1"
           id="path4208"
           inkscape:connector-curvature="0" />
        <path
           d="m 1985.363,630.22858 q 0,7.86132 -4.1015,12.13379 -3.9307,4.10156 -15.0391,4.10156 l -117.9199,0 q 0.6836,15.55176 5.4687,26.83105 4.7852,11.2793 12.6465,17.77344 7.8614,6.32324 17.2608,9.39941 9.3994,2.90528 20.5078,2.90528 15.5517,0 31.7871,-5.46875 16.2353,-5.46875 29.3945,-15.38086 9.7412,11.45019 9.7412,22.55859 0,7.34864 -9.7412,14.52637 -9.7412,7.00684 -26.3183,11.62109 -16.5772,4.61426 -34.5215,4.61426 -14.6973,0 -28.0274,-2.90527 -13.1591,-2.90528 -25.9765,-10.08301 -12.6465,-7.34863 -21.875,-18.45703 -9.2285,-11.1084 -14.8682,-28.54004 -5.6396,-17.43164 -5.6396,-39.47754 0,-21.5332 8.2031,-39.47754 8.2031,-17.94433 21.7041,-29.22363 13.501,-11.4502 30.0781,-17.60254 16.7481,-6.15234 34.3506,-6.15234 12.9883,0 24.9512,3.24707 11.9629,3.24707 22.5586,10.2539 10.5957,6.83594 18.457,16.91895 7.8613,9.91211 12.3047,24.26758 4.6142,14.35546 4.6142,31.61621 z m -34.5214,-10.25391 q -1.5381,-23.75488 -15.0391,-36.05957 -13.3301,-12.47559 -31.958,-12.47559 -19.8242,0 -36.0596,13.33008 -16.0644,13.15918 -18.457,35.20508 l 101.5137,0 z"
           style="font-style:normal;font-variant:normal;font-weight:normal;font-stretch:normal;font-size:350px;font-family:Coustard;-inkscape-font-specification:Coustard;letter-spacing:0px;fill:#ed7041;fill-opacity:1"
           id="path4210"
           inkscape:connector-curvature="0" />
        <path
           d="m 2003.6492,707.81647 q 0,-11.79199 7.8613,-19.82422 7.8613,-8.03223 23.0713,-8.03223 14.8682,0 22.3877,8.20313 7.5195,8.03222 7.5195,19.65332 0,11.45019 -7.5195,19.65332 -7.5195,8.20312 -22.3877,8.20312 -15.21,0 -23.0713,-8.03222 -7.8613,-8.20313 -7.8613,-19.82422 z"
           style="font-style:normal;font-variant:normal;font-weight:normal;font-stretch:normal;font-size:350px;font-family:Coustard;-inkscape-font-specification:Coustard;letter-spacing:0px;fill:#ed7041;fill-opacity:1"
           id="path4212"
           inkscape:connector-curvature="0" />
        <path
           d="m 2158.1414,518.461 q -4.1016,0 -8.3741,-0.6836 -4.2724,-0.85449 -9.3994,-2.90527 -4.956,-2.05078 -8.2031,-6.49414 -3.0762,-4.44336 -3.0762,-10.5957 0,-21.02051 28.3692,-21.02051 8.0322,0 13.5009,2.05078 5.6397,2.05078 8.2032,5.46875 2.7343,3.41797 3.7597,6.66504 1.0254,3.24707 1.0254,7.00684 0,7.69043 -4.7851,12.64648 -4.7852,4.95606 -10.2539,6.49414 -5.2979,1.36719 -10.7666,1.36719 z m 28.1982,45.28808 0,141.16211 q 0,11.4502 -0.8545,21.02051 -0.6836,9.39942 -2.7344,19.31153 -2.0507,10.083 -5.9814,17.60253 -3.7598,7.51954 -9.3994,13.50098 -5.6397,6.15234 -14.1846,9.39941 -8.5449,3.24708 -19.4824,3.24708 -8.7158,0 -17.4317,-1.87989 -8.5449,-1.70898 -17.0898,-5.63965 -8.374,-3.75976 -13.6719,-11.10839 -5.1269,-7.17774 -5.1269,-16.74805 0,-7.00684 5.8105,-11.2793 5.8106,-4.10156 13.501,-4.10156 6.1523,0 9.7412,2.05078 3.5889,2.05078 5.127,4.95606 1.538,2.90527 2.9052,5.81054 1.3672,2.90528 4.4434,4.95606 3.2471,2.05078 8.8867,2.05078 5.4688,0 8.8867,-2.90528 3.5889,-2.73437 5.127,-8.71582 1.709,-5.81054 2.2217,-12.13378 0.5127,-6.15235 0.5127,-15.89356 l 0,-121.50879 q 0,-9.05762 -5.6397,-12.81738 -5.4687,-3.75977 -21.3623,-4.44336 -2.2217,-0.5127 -2.9053,-2.22168 -0.5127,-1.70898 -0.5127,-7.34863 0,-8.54493 1.8799,-15.20996 2.0508,-6.83594 3.7598,-7.86133 15.8935,1.87988 30.5908,1.87988 7.1777,0 15.0391,-0.85449 7.8613,-1.02539 8.374,-1.02539 5.9814,0 7.6904,3.07617 1.8799,2.90527 1.8799,13.67187 z"
           style="letter-spacing:0px;fill:#ed7041;fill-opacity:1"
           id="path4214"
           inkscape:connector-curvature="0" />
        <path
           d="m 2357.7507,685.94147 q 0,17.26074 -10.5957,28.71093 -10.4248,11.2793 -27.6855,16.23536 -17.2608,4.95605 -40.8447,4.95605 -36.2305,0 -56.7383,-10.4248 -20.3369,-10.42481 -20.3369,-31.95801 0,-24.43848 29.9072,-24.43848 4.7851,0 6.3232,1.87988 1.5381,1.87989 1.5381,7.17774 l 0,23.24219 q 6.3233,3.41797 18.6279,5.29785 12.4756,1.87988 25.1221,1.87988 15.0391,0 24.7803,-6.15234 9.9121,-6.32324 9.9121,-17.26074 0,-7.69043 -4.9561,-13.67188 -4.956,-6.15234 -12.9882,-9.91211 -8.0323,-3.75976 -18.4571,-7.51953 -10.2539,-3.93066 -21.0205,-7.17773 -10.5957,-3.24708 -21.0205,-8.20313 -10.2539,-4.95605 -18.2861,-10.7666 -8.0322,-5.81055 -12.9883,-15.20996 -4.9561,-9.39942 -4.9561,-21.19141 0,-15.20996 11.2793,-26.31836 11.2793,-11.1084 27.5147,-16.06445 16.4062,-4.95606 35.0342,-4.95606 76.5625,0 76.5625,44.4336 0,2.73437 -1.0254,5.81054 -0.8545,3.07618 -3.5889,7.17774 -2.5635,4.10156 -8.8867,6.83594 -6.1523,2.56347 -15.21,2.56347 -1.709,0 -2.9052,-0.34179 -1.0254,-0.3418 -1.709,-0.6836 -0.5127,-0.51269 -1.0254,-1.53808 -0.3418,-1.19629 -0.5127,-1.70899 0,-0.51269 -0.3418,-2.22168 -0.1709,-1.87988 -0.1709,-2.56347 l -2.3926,-23.92579 q -2.3926,-2.39257 -14.8681,-5.29785 -12.3047,-2.90527 -21.1915,-2.90527 -17.4316,0 -25.9765,6.49414 -8.374,6.49414 -8.374,16.40625 0,7.17773 6.1523,12.64648 6.3232,5.46875 16.2354,9.39942 9.9121,3.75976 21.875,7.51953 11.9628,3.75977 23.9257,9.05762 11.9629,5.12695 21.875,11.79199 9.9121,6.66504 16.0645,17.77344 6.3232,10.9375 6.3232,25.12207 z"
           style="letter-spacing:0px;fill:#ed7041;fill-opacity:1"
           id="path4216"
           inkscape:connector-curvature="0" />
      </g>
      <g
         id="g4662"
         transform="matrix(3.5838978,0,0,3.5838978,-92.715668,234.10787)">
        <ellipse
           style="opacity:0.5;filter:url(#filter4244)"
           ry="67.828003"
           rx="62.329384"
           cy="437.02231"
           cx="247.07143"
           enable-background="new    "
           clip-path="url(#SVGID_8_)"
           id="path4032"
           transform="matrix(0.35658386,0,0,0.35658386,16.270564,-2.3873686)">
          <path
             id="path75"
             d="M91.848,402.655c0.006,50.775-33.804,91.942-75.516,91.949c-41.711,0.006-75.529-41.151-75.534-91.927      c0-0.007,0-0.015,0-0.022c-0.005-50.775,33.805-91.942,75.516-91.948c41.712-0.006,75.529,41.15,75.534,91.927      C91.848,402.64,91.848,402.648,91.848,402.655z" />
        </ellipse>
        <g
           transform="matrix(0.89138707,0,0,0.89138707,10.861293,10.603639)"
           id="g5825">
          <path
             style="fill:#eb9f83;fill-opacity:1"
             d="m 167.95734,137.38851 c 0,0 0.0998,12.41411 -7.00795,16.11866 -5.07846,2.64657 -15.81841,-2.90366 -15.81841,-2.90366 l 22.82636,-13.215 0,0 z"
             inkscape:connector-curvature="0"
             sodipodi:nodetypes="cscc"
             id="path3176" />
          <path
             style="fill:#eb9f83;fill-opacity:1"
             d="m 155.60096,32.822082 c 7.36239,2.477901 11.03663,14.10824 10.33558,19.114321 L 133.5138,38.768831 c 4.8039,-1.426336 14.68127,-8.439271 22.08716,-5.946749 z"
             inkscape:connector-curvature="0"
             sodipodi:nodetypes="cccz"
             id="path4389" />
          <path
             style="fill:#fca889;fill-opacity:1"
             d="m 111.60362,29.939098 c -11.12506,0.0053 -22.327859,2.069256 -32.70552,5.894688 -29.440276,10.852986 -45.387776,35.07858 -49.275253,50.690891 -14.609954,58.674453 41.540236,78.594293 45.73188,82.259263 4.120683,3.60292 5.311673,14.42417 18.263868,14.01802 12.958255,-0.4065 14.991145,-10.18581 20.670815,-12.74787 5.44325,-2.45544 15.29709,-0.88148 43.89333,-22.93262 28.4586,-21.9456 29.25521,-69.495699 9.91731,-92.600551 -7.28109,-8.699219 -15.38089,-14.480514 -25.26183,-18.485307 -1.12752,-0.251392 -2.72394,-0.341607 -3.5587,-0.375126 -0.30667,-0.508845 -0.66824,-0.963846 -1.23272,-1.498366 -8.43641,-2.870856 -17.4127,-4.226945 -26.44318,-4.223022 z"
             inkscape:connector-curvature="0"
             sodipodi:nodetypes="cssssssscccc"
             id="path2404" />
          <path
             transform="matrix(0.35658386,0,0,0.35658386,16.270564,-2.3873686)"
             d="m 61.526,240.514 c 1.591,-4.826 8.044,-18.509 14.881,-12.354 3.109,3.807 -6.879,20.917 -11.09,21.899 -4.212,0.984 -4.493,-8.422 -3.791,-9.545 l 0,0 z"
             id="path21"
             inkscape:connector-curvature="0"
             style="fill:#8f3e34;fill-opacity:1" />
          <path
             transform="matrix(0.35658386,0,0,0.35658386,16.270564,-2.3873686)"
             d="m 103.526,269.374 c 1.591,-4.826 8.044,-18.509 14.881,-12.354 3.109,3.807 -6.879,20.917 -11.09,21.899 -4.212,0.985 -4.493,-8.422 -3.791,-9.545 l 0,0 z"
             id="path24"
             inkscape:connector-curvature="0"
             style="fill:#8f3e34;fill-opacity:1" />
          <path
             style="fill:#fca889;fill-opacity:1"
             d="M 65.641382,50.087512 C 72.521668,47.683067 86.068289,39.537979 80.858955,35.170183 73.047273,37.845275 60.704122,15.520629 37.808942,30.264659 24.661695,38.731743 42.164258,62.452058 37.759021,68.659113 43.875504,58.457962 47.730888,56.329156 65.641382,50.087512 Z"
             inkscape:connector-curvature="0"
             sodipodi:nodetypes="ccscs"
             id="path3180" />
          <use
             transform="matrix(0.35658386,0,0,0.35658386,16.270564,-2.3873686)"
             xlink:href="#SVGID_1_"
             overflow="visible"
             id="use33"
             style="overflow:visible;fill:#fca889;fill-opacity:1;stroke:none"
             x="0"
             y="0"
             width="100%"
             height="100%" />
          <use
             transform="matrix(0.35658386,0,0,0.35658386,16.270564,-2.3873686)"
             xlink:href="#SVGID_7_"
             overflow="visible"
             id="use69"
             style="overflow:visible;fill:#fca889;fill-opacity:1"
             x="0"
             y="0"
             width="100%"
             height="100%" />
          <path
             transform="matrix(0.35658386,0,0,0.35658386,16.270564,-2.3873686)"
             id="path4399"
             sodipodi:nodetypes="cscc"
             inkscape:connector-curvature="0"
             clip-path="url(#SVGID_10_-8)"
             enable-background="new    "
             d="m 172.708,185.344 c 0,0 53.174,-24.134 87.598,5.615 45.483,39.308 3.931,142.066 3.931,142.066 L 172.708,185.344 Z"
             style="fill:#ffd4c5;fill-opacity:1" />
          <path
             transform="matrix(0.35658386,0,0,0.35658386,16.270564,-2.3873686)"
             id="path4401"
             sodipodi:nodetypes="cssc"
             inkscape:connector-curvature="0"
             clip-path="url(#SVGID_12_-3)"
             enable-background="new    "
             d="m 137.894,151.653 c -27.515,-7.3 -62.33,-54.468 -82.545,-35.938 -14.924,13.681 16.284,76.367 7.861,83.667 -8.423,7.3 88.216,-43.996 74.684,-47.729 z"
             style="fill:#ffd4c5;fill-opacity:1" />
          <path
             style="fill:#e58c72;fill-opacity:1"
             d="m 23.292413,118.07486 c -1.199191,1.1154 -0.539511,9.82995 0.590147,13.28525 1.129301,3.45458 3.479188,6.41387 4.254402,5.84975 0.73064,-0.53131 0.924622,-5.03211 0.138354,-8.50595 -0.796965,-3.52198 -1.025535,-9.57534 -2.123813,-9.97115 -1.075457,-0.38797 -1.691991,-1.7437 -2.85909,-0.6579 l 0,0 z m 8.771963,6.96872 c -1.233423,0.8394 -1.525109,6.83179 -1.13251,10.36411 0.505279,3.91707 3.475266,9.37067 6.177102,10.03748 2.701836,0.66645 3.321579,-0.19791 2.723588,-4.11783 -0.597991,-3.92029 -2.190852,-7.84057 -2.456506,-10.36554 -0.266012,-2.52461 -0.07595,-3.59508 -1.730145,-4.78107 -1.654549,-1.186 -2.347749,-1.97655 -3.581529,-1.13715 z"
             enable-background="new    "
             inkscape:connector-curvature="0"
             sodipodi:nodetypes="czzzzzcczzzzz"
             id="path4668" />
          <path
             style="fill:#ffd4c5;fill-opacity:1"
             d="m 124.6635,31.967347 c -16.05234,0.04921 -32.005542,6.084034 -39.725582,10.853699 0.358723,1.275501 6.131459,2.963925 7.733591,2.863725 16.335821,-5.079893 31.252431,-11.372529 46.645451,-10.006456 -0.33448,-0.827275 -1.35609,-1.678797 -2.68544,-2.496087 -3.90923,-0.854375 -7.94326,-1.227005 -11.96802,-1.214881 z"
             inkscape:connector-curvature="0"
             id="path4685" />
          <path
             style="opacity:0.75;fill:#aa4a3e;fill-opacity:1"
             d="m 128.0621,35.221175 c -13.3694,0.110897 -25.87087,3.952375 -38.076381,10.028921 1.125022,0.289902 2.143782,0.468194 2.685433,0.434675 14.736538,-4.582815 28.314188,-10.152299 42.132518,-10.196159 -2.27215,-0.194338 -4.52005,-0.28598 -6.74157,-0.267437 z"
             enable-background="new    "
             inkscape:connector-curvature="0"
             id="path4759" />
          <path
             inkscape:connector-curvature="0"
             id="path4497"
             d="m 36.748942,147.6648 c -5.448976,-2.21463 -10.575869,-7.64118 -14.102816,-14.92709 -2.026442,-4.18619 -3.645908,-9.5241 -3.658718,-12.05947 -0.01188,-2.3514 2.810532,-5.86915 5.542567,-6.90805 4.516,-1.71728 9.833193,0.54794 13.778541,5.86992 2.338417,3.15435 4.056291,7.2828 4.798233,11.53125 0.477,2.73137 0.347225,7.35403 -0.269656,9.60527 -0.814474,2.97234 -2.449693,5.79955 -4.030266,6.96812 l -0.6602,0.48811 -1.397685,-0.56806 z m 2.923767,-2.49618 c 0.702191,-0.70219 0.354706,-3.89817 -0.974556,-8.96342 -0.629708,-2.39954 -1.244732,-5.23791 -1.366719,-6.30749 -0.25844,-2.26597 -0.62731,-2.9837 -2.095361,-4.07702 -1.467125,-1.09264 -2.10083,-1.3055 -2.819748,-0.94716 -0.784254,0.3909 -1.124005,1.1686 -1.463695,3.35042 -0.459319,2.95018 -0.180608,7.5552 0.595398,9.83751 1.133755,3.33448 3.135058,6.26531 4.85811,7.11451 1.07478,0.52971 2.733245,0.52597 3.266571,-0.007 l 0,1e-5 z m -11.077014,-8.8828 c 0.36337,-1.40391 0.0439,-5.92932 -0.77735,-11.01137 -0.424094,-2.62438 -0.883724,-5.11798 -1.0214,-5.54133 -0.270233,-0.83096 -1.845121,-2.04429 -2.653469,-2.04429 -1.309987,0 -1.616596,1.29972 -1.41035,5.97848 0.257148,5.83348 1.484742,9.94985 3.759979,12.60795 1.079669,1.26135 1.777944,1.26486 2.10259,0.0106 z"
             style="fill:#ffd4c5;fill-opacity:1;stroke:none;stroke-width:0.24469714;stroke-opacity:1" />
        </g>
      </g>
    </g>
  </g>
</svg>
