<?xml version="1.0" encoding="UTF-8" standalone="no"?>
<!-- Generator: Adobe Illustrator 16.0.0, SVG Export Plug-In . SVG Version: 6.00 Build 0)  -->

<svg
   xmlns:dc="http://purl.org/dc/elements/1.1/"
   xmlns:cc="http://creativecommons.org/ns#"
   xmlns:rdf="http://www.w3.org/1999/02/22-rdf-syntax-ns#"
   xmlns:svg="http://www.w3.org/2000/svg"
   xmlns="http://www.w3.org/2000/svg"
   xmlns:xlink="http://www.w3.org/1999/xlink"
   xmlns:sodipodi="http://sodipodi.sourceforge.net/DTD/sodipodi-0.dtd"
   xmlns:inkscape="http://www.inkscape.org/namespaces/inkscape"
   inkscape:export-ydpi="14.4"
   inkscape:export-xdpi="14.4"
   inkscape:export-filename="/home/dali/git/fortune/website/assets/piggu.png"
   xml:space="preserve"
   enable-background="new 0 0 469.619 534.449"
   viewBox="0 0 200.00001 200.00001"
   height="200"
   width="200"
   y="0px"
   x="0px"
   inkscape:version="0.91 r13725"
   inkscape:output_extension="org.inkscape.output.svg.inkscape"
   sodipodi:version="0.32"
   sodipodi:docname="piggu.svg"
   id="piggy"
   version="1.1"><sodipodi:namedview
     inkscape:guide-bbox="true"
     inkscape:window-x="0"
     inkscape:current-layer="piggy"
     inkscape:window-y="33"
     inkscape:pageopacity="0.0"
     inkscape:window-height="1144"
     inkscape:pageshadow="2"
     inkscape:window-width="1920"
     inkscape:showpageshadow="false"
     fit-margin-bottom="0"
     inkscape:window-maximized="1"
     fit-margin-right="0"
     guidetolerance="10.0"
     objecttolerance="10.0"
     fit-margin-left="0"
     fit-margin-top="0"
     showgrid="false"
     gridtolerance="10.0"
     pagecolor="#ffffff"
     bordercolor="#666666"
     inkscape:cx="-45.929207"
     inkscape:cy="97.242166"
     inkscape:zoom="1.4448611"
     borderopacity="1.0"
     showguides="true"
     id="base" /><metadata
     id="metadata106"><rdf:RDF><cc:Work
         rdf:about=""><dc:format>image/svg+xml</dc:format><dc:type
           rdf:resource="http://purl.org/dc/dcmitype/StillImage" /><dc:title /></cc:Work></rdf:RDF></metadata><defs
     id="defs104"><defs
       id="defs88"><path
         id="SVGID_11_"
         d="m 138.455,147.16 c 19.295,-6.743 57.285,-29.585 42.676,-41.834 -21.907,7.502 -56.522,-55.105 -120.729,-13.757 -36.87,23.745 12.214,90.266 -0.14,107.673 17.153,-28.608 27.965,-34.578 78.193,-52.082 z"
         inkscape:connector-curvature="0" /></defs><clipPath
       id="SVGID_12_"><use
         xlink:href="#SVGID_11_"
         overflow="visible"
         id="use92"
         style="overflow:visible"
         x="0"
         y="0"
         width="100%"
         height="100%" /></clipPath><defs
       id="defs79"><path
         id="SVGID_9_"
         d="m 272.515,325.577 c 33.958,3.666 103.234,-40.5 67.499,-128.646 C 304.28,108.784 193.61,127.91 178.015,178.665 c -2.951,9.603 45.515,19.72 65.911,58.766 20.397,39.045 12.02,86.357 28.589,88.146 z"
         inkscape:connector-curvature="0" /></defs><clipPath
       id="SVGID_10_"><use
         xlink:href="#SVGID_9_"
         overflow="visible"
         id="use83"
         style="overflow:visible"
         x="0"
         y="0"
         width="100%"
         height="100%" /></clipPath><defs
       id="defs66"><path
         id="SVGID_7_"
         d="m 39.044,291.431 c -9.488,12.649 -30.976,18.263 -32.162,45.265 -1.204,27.397 21.731,76.602 55.191,86.161 33.353,9.529 36.927,-1.191 54,-0.396 16.677,0.775 17.867,-66.309 -11.912,-97.677 -29.582,-31.16 -51.22,-36.132 -65.117,-33.353 z"
         inkscape:connector-curvature="0" /></defs><clipPath
       id="SVGID_8_"><use
         xlink:href="#SVGID_7_"
         overflow="visible"
         id="use72"
         style="overflow:visible"
         x="0"
         y="0"
         width="100%"
         height="100%" /></clipPath><defs
       id="defs54"><path
         id="SVGID_5_"
         d="m 138.455,147.16 c 19.295,-6.743 57.285,-29.585 42.676,-41.834 -21.907,7.502 -56.522,-55.105 -120.729,-13.757 -36.87,23.745 12.214,90.266 -0.14,107.673 17.153,-28.608 27.965,-34.578 78.193,-52.082 z"
         inkscape:connector-curvature="0" /></defs><clipPath
       id="SVGID_6_"><use
         xlink:href="#SVGID_5_"
         overflow="visible"
         id="use58"
         style="overflow:visible"
         x="0"
         y="0"
         width="100%"
         height="100%" /></clipPath><defs
       id="defs43"><path
         id="SVGID_3_"
         d="m 272.515,325.577 c 33.958,3.666 103.234,-40.5 67.499,-128.646 C 304.28,108.784 193.61,127.91 178.015,178.665 c -2.951,9.603 45.515,19.72 65.911,58.766 20.397,39.045 12.02,86.357 28.589,88.146 z"
         inkscape:connector-curvature="0" /></defs><clipPath
       id="SVGID_4_"><use
         xlink:href="#SVGID_3_"
         overflow="visible"
         id="use47"
         style="overflow:visible"
         x="0"
         y="0"
         width="100%"
         height="100%" /></clipPath><defs
       id="defs30"><path
         id="SVGID_1_"
         d="m 272.515,325.577 c 33.958,3.666 103.234,-40.5 67.499,-128.646 C 304.28,108.784 193.61,127.91 178.015,178.665 c -2.951,9.603 45.515,19.72 65.911,58.766 20.397,39.045 12.02,86.357 28.589,88.146 z"
         inkscape:connector-curvature="0" /></defs><clipPath
       id="SVGID_2_"><use
         xlink:href="#SVGID_1_"
         overflow="visible"
         id="use36"
         style="overflow:visible"
         x="0"
         y="0"
         width="100%"
         height="100%" /></clipPath></defs><filter
     style="color-interpolation-filters:sRGB"
     inkscape:collect="always"
     id="filter4244"><feGaussianBlur
       inkscape:collect="always"
       id="feGaussianBlur4246"
       stdDeviation="2.8877355" /></filter><ellipse
     transform="matrix(0.49209604,0,0,0.49209604,11.988706,-69.252788)"
     id="path4032"
     clip-path="url(#SVGID_8_)"
     enable-background="new    "
     cx="247.07143"
     cy="437.02231"
     rx="62.329384"
     ry="67.828003"
     style="opacity:0.5;filter:url(#filter4244)"><path
       d="M91.848,402.655c0.006,50.775-33.804,91.942-75.516,91.949c-41.711,0.006-75.529-41.151-75.534-91.927      c0-0.007,0-0.015,0-0.022c-0.005-50.775,33.805-91.942,75.516-91.948c41.712-0.006,75.529,41.15,75.534,91.927      C91.848,402.64,91.848,402.648,91.848,402.655z"
       id="path75" /></ellipse><g
     id="g5825"
     transform="matrix(1.2301399,0,0,1.2301399,-23.013992,-27.934549)"><path
       id="path3176"
       sodipodi:nodetypes="cscc"
       inkscape:connector-curvature="0"
       d="m 167.95734,137.38851 c 0,0 0.0998,12.41411 -7.00795,16.11866 -5.07846,2.64657 -15.81841,-2.90366 -15.81841,-2.90366 l 22.82636,-13.215 0,0 z"
       style="fill:#eb9f83;fill-opacity:1" /><path
       id="path4389"
       sodipodi:nodetypes="cccz"
       inkscape:connector-curvature="0"
       d="m 155.60096,32.822082 c 7.36239,2.477901 11.03663,14.10824 10.33558,19.114321 L 133.5138,38.768831 c 4.8039,-1.426336 14.68127,-8.439271 22.08716,-5.946749 z"
       style="fill:#eb9f83;fill-opacity:1" /><path
       id="path2404"
       sodipodi:nodetypes="cssssssscccc"
       inkscape:connector-curvature="0"
       d="m 111.60362,29.939098 c -11.12506,0.0053 -22.327859,2.069256 -32.70552,5.894688 -29.440276,10.852986 -45.387776,35.07858 -49.275253,50.690891 -14.609954,58.674453 41.540236,78.594293 45.73188,82.259263 4.120683,3.60292 5.311673,14.42417 18.263868,14.01802 12.958255,-0.4065 14.991145,-10.18581 20.670815,-12.74787 5.44325,-2.45544 15.29709,-0.88148 43.89333,-22.93262 28.4586,-21.9456 29.25521,-69.495699 9.91731,-92.600551 -7.28109,-8.699219 -15.38089,-14.480514 -25.26183,-18.485307 -1.12752,-0.251392 -2.72394,-0.341607 -3.5587,-0.375126 -0.30667,-0.508845 -0.66824,-0.963846 -1.23272,-1.498366 -8.43641,-2.870856 -17.4127,-4.226945 -26.44318,-4.223022 z"
       style="fill:#fca889;fill-opacity:1" /><path
       style="fill:#8f3e34;fill-opacity:1"
       inkscape:connector-curvature="0"
       id="path21"
       d="m 61.526,240.514 c 1.591,-4.826 8.044,-18.509 14.881,-12.354 3.109,3.807 -6.879,20.917 -11.09,21.899 -4.212,0.984 -4.493,-8.422 -3.791,-9.545 l 0,0 z"
       transform="matrix(0.35658386,0,0,0.35658386,16.270564,-2.3873686)" /><path
       style="fill:#8f3e34;fill-opacity:1"
       inkscape:connector-curvature="0"
       id="path24"
       d="m 103.526,269.374 c 1.591,-4.826 8.044,-18.509 14.881,-12.354 3.109,3.807 -6.879,20.917 -11.09,21.899 -4.212,0.985 -4.493,-8.422 -3.791,-9.545 l 0,0 z"
       transform="matrix(0.35658386,0,0,0.35658386,16.270564,-2.3873686)" /><path
       id="path3180"
       sodipodi:nodetypes="ccscs"
       inkscape:connector-curvature="0"
       d="M 65.641382,50.087512 C 72.521668,47.683067 86.068289,39.537979 80.858955,35.170183 73.047273,37.845275 60.704122,15.520629 37.808942,30.264659 24.661695,38.731743 42.164258,62.452058 37.759021,68.659113 43.875504,58.457962 47.730888,56.329156 65.641382,50.087512 Z"
       style="fill:#fca889;fill-opacity:1" /><use
       height="100%"
       width="100%"
       y="0"
       x="0"
       style="overflow:visible;fill:#fca889;fill-opacity:1;stroke:none"
       id="use33"
       overflow="visible"
       xlink:href="#SVGID_1_"
       transform="matrix(0.35658386,0,0,0.35658386,16.270564,-2.3873686)" /><use
       height="100%"
       width="100%"
       y="0"
       x="0"
       style="overflow:visible;fill:#fca889;fill-opacity:1"
       id="use69"
       overflow="visible"
       xlink:href="#SVGID_7_"
       transform="matrix(0.35658386,0,0,0.35658386,16.270564,-2.3873686)" /><path
       style="fill:#ffd4c5;fill-opacity:1"
       d="m 172.708,185.344 c 0,0 53.174,-24.134 87.598,5.615 45.483,39.308 3.931,142.066 3.931,142.066 L 172.708,185.344 Z"
       enable-background="new    "
       clip-path="url(#SVGID_10_)"
       inkscape:connector-curvature="0"
       sodipodi:nodetypes="cscc"
       id="path4399"
       transform="matrix(0.35658386,0,0,0.35658386,16.270564,-2.3873686)" /><path
       style="fill:#ffd4c5;fill-opacity:1"
       d="m 137.894,151.653 c -27.515,-7.3 -62.33,-54.468 -82.545,-35.938 -14.924,13.681 16.284,76.367 7.861,83.667 -8.423,7.3 88.216,-43.996 74.684,-47.729 z"
       enable-background="new    "
       clip-path="url(#SVGID_12_)"
       inkscape:connector-curvature="0"
       sodipodi:nodetypes="cssc"
       id="path4401"
       transform="matrix(0.35658386,0,0,0.35658386,16.270564,-2.3873686)" /><path
       id="path4668"
       sodipodi:nodetypes="czzzzzcczzzzz"
       inkscape:connector-curvature="0"
       enable-background="new    "
       d="m 23.292413,118.07486 c -1.199191,1.1154 -0.539511,9.82995 0.590147,13.28525 1.129301,3.45458 3.479188,6.41387 4.254402,5.84975 0.73064,-0.53131 0.924622,-5.03211 0.138354,-8.50595 -0.796965,-3.52198 -1.025535,-9.57534 -2.123813,-9.97115 -1.075457,-0.38797 -1.691991,-1.7437 -2.85909,-0.6579 l 0,0 z m 8.771963,6.96872 c -1.233423,0.8394 -1.525109,6.83179 -1.13251,10.36411 0.505279,3.91707 3.475266,9.37067 6.177102,10.03748 2.701836,0.66645 3.321579,-0.19791 2.723588,-4.11783 -0.597991,-3.92029 -2.190852,-7.84057 -2.456506,-10.36554 -0.266012,-2.52461 -0.07595,-3.59508 -1.730145,-4.78107 -1.654549,-1.186 -2.347749,-1.97655 -3.581529,-1.13715 z"
       style="fill:#e58c72;fill-opacity:1" /><path
       id="path4685"
       inkscape:connector-curvature="0"
       d="m 124.6635,31.967347 c -16.05234,0.04921 -32.005542,6.084034 -39.725582,10.853699 0.358723,1.275501 6.131459,2.963925 7.733591,2.863725 16.335821,-5.079893 31.252431,-11.372529 46.645451,-10.006456 -0.33448,-0.827275 -1.35609,-1.678797 -2.68544,-2.496087 -3.90923,-0.854375 -7.94326,-1.227005 -11.96802,-1.214881 z"
       style="fill:#ffd4c5;fill-opacity:1" /><path
       id="path4759"
       inkscape:connector-curvature="0"
       enable-background="new    "
       d="m 128.0621,35.221175 c -13.3694,0.110897 -25.87087,3.952375 -38.076381,10.028921 1.125022,0.289902 2.143782,0.468194 2.685433,0.434675 14.736538,-4.582815 28.314188,-10.152299 42.132518,-10.196159 -2.27215,-0.194338 -4.52005,-0.28598 -6.74157,-0.267437 z"
       style="opacity:0.75;fill:#aa4a3e;fill-opacity:1" /><path
       style="fill:#ffd4c5;fill-opacity:1;stroke:none;stroke-width:0.24469714;stroke-opacity:1"
       d="m 36.748942,147.6648 c -5.448976,-2.21463 -10.575869,-7.64118 -14.102816,-14.92709 -2.026442,-4.18619 -3.645908,-9.5241 -3.658718,-12.05947 -0.01188,-2.3514 2.810532,-5.86915 5.542567,-6.90805 4.516,-1.71728 9.833193,0.54794 13.778541,5.86992 2.338417,3.15435 4.056291,7.2828 4.798233,11.53125 0.477,2.73137 0.347225,7.35403 -0.269656,9.60527 -0.814474,2.97234 -2.449693,5.79955 -4.030266,6.96812 l -0.6602,0.48811 -1.397685,-0.56806 z m 2.923767,-2.49618 c 0.702191,-0.70219 0.354706,-3.89817 -0.974556,-8.96342 -0.629708,-2.39954 -1.244732,-5.23791 -1.366719,-6.30749 -0.25844,-2.26597 -0.62731,-2.9837 -2.095361,-4.07702 -1.467125,-1.09264 -2.10083,-1.3055 -2.819748,-0.94716 -0.784254,0.3909 -1.124005,1.1686 -1.463695,3.35042 -0.459319,2.95018 -0.180608,7.5552 0.595398,9.83751 1.133755,3.33448 3.135058,6.26531 4.85811,7.11451 1.07478,0.52971 2.733245,0.52597 3.266571,-0.007 l 0,1e-5 z m -11.077014,-8.8828 c 0.36337,-1.40391 0.0439,-5.92932 -0.77735,-11.01137 -0.424094,-2.62438 -0.883724,-5.11798 -1.0214,-5.54133 -0.270233,-0.83096 -1.845121,-2.04429 -2.653469,-2.04429 -1.309987,0 -1.616596,1.29972 -1.41035,5.97848 0.257148,5.83348 1.484742,9.94985 3.759979,12.60795 1.079669,1.26135 1.777944,1.26486 2.10259,0.0106 z"
       id="path4497"
       inkscape:connector-curvature="0" /></g></svg>